# Blender 3.5.1
# www.blender.org
mtllib viper_cylwheel.mtl
o viper_cylwheel
v 0.000000 0.000000 0.128000
v 0.000000 0.000000 -0.128000
v 0.000000 -0.208000 0.128000
v 0.000000 -0.208000 -0.128000
v 0.032538 -0.205438 0.128000
v 0.032538 -0.205438 -0.128000
v 0.064275 -0.197819 0.128000
v 0.064275 -0.197819 -0.128000
v 0.094430 -0.185330 0.128000
v 0.094430 -0.185330 -0.128000
v 0.122259 -0.168275 0.128000
v 0.122259 -0.168275 -0.128000
v 0.147078 -0.147078 0.128000
v 0.147078 -0.147078 -0.128000
v 0.168275 -0.122259 0.128000
v 0.168275 -0.122259 -0.128000
v 0.185330 -0.094430 0.128000
v 0.185330 -0.094430 -0.128000
v 0.197819 -0.064275 0.128000
v 0.197819 -0.064275 -0.128000
v 0.205438 -0.032538 0.128000
v 0.205438 -0.032538 -0.128000
v 0.208000 0.000000 0.128000
v 0.208000 0.000000 -0.128000
v 0.205438 0.032539 0.128000
v 0.205438 0.032539 -0.128000
v 0.197819 0.064275 0.128000
v 0.197819 0.064275 -0.128000
v 0.185330 0.094430 0.128000
v 0.185330 0.094430 -0.128000
v 0.168275 0.122259 0.128000
v 0.168275 0.122259 -0.128000
v 0.147078 0.147078 0.128000
v 0.147078 0.147078 -0.128000
v 0.122259 0.168275 0.128000
v 0.122259 0.168275 -0.128000
v 0.094430 0.185330 0.128000
v 0.094430 0.185330 -0.128000
v 0.064275 0.197819 0.128000
v 0.064275 0.197819 -0.128000
v 0.032538 0.205438 0.128000
v 0.032538 0.205438 -0.128000
v 0.000000 0.208000 0.128000
v 0.000000 0.208000 -0.128000
v -0.032539 0.205438 0.128000
v -0.032539 0.205438 -0.128000
v -0.064275 0.197819 0.128000
v -0.064275 0.197819 -0.128000
v -0.094430 0.185330 0.128000
v -0.094430 0.185330 -0.128000
v -0.122259 0.168275 0.128000
v -0.122259 0.168275 -0.128000
v -0.147078 0.147078 0.128000
v -0.147078 0.147078 -0.128000
v -0.168275 0.122259 0.128000
v -0.168275 0.122259 -0.128000
v -0.185330 0.094430 0.128000
v -0.185330 0.094430 -0.128000
v -0.197819 0.064275 0.128000
v -0.197819 0.064275 -0.128000
v -0.205440 0.032538 0.128000
v -0.205440 0.032538 -0.128000
v -0.208000 0.000000 0.128000
v -0.208000 0.000000 -0.128000
v -0.205438 -0.032539 0.128000
v -0.205438 -0.032539 -0.128000
v -0.197819 -0.064275 0.128000
v -0.197819 -0.064275 -0.128000
v -0.185330 -0.094430 0.128000
v -0.185330 -0.094430 -0.128000
v -0.168275 -0.122259 0.128000
v -0.168275 -0.122259 -0.128000
v -0.147078 -0.147078 0.128000
v -0.147078 -0.147078 -0.128000
v -0.122259 -0.168275 0.128000
v -0.122259 -0.168275 -0.128000
v -0.094430 -0.185330 0.128000
v -0.094430 -0.185330 -0.128000
v -0.064275 -0.197819 0.128000
v -0.064275 -0.197819 -0.128000
v -0.032538 -0.205440 0.128000
v -0.032538 -0.205440 -0.128000
vn -0.0000 -0.0000 1.0000
vn 0.0263 -0.9997 0.0018
vn 0.1823 -0.9832 0.0018
vn -0.0000 -0.0000 -1.0000
vn 0.1305 -0.9914 -0.0018
vn -0.0262 -0.9997 -0.0018
vn 0.1305 -0.9915 -0.0018
vn 0.3339 -0.9426 0.0018
vn 0.2840 -0.9588 -0.0018
vn 0.1304 -0.9915 -0.0018
vn 0.3338 -0.9426 0.0018
vn 0.4772 -0.8788 0.0018
vn 0.4304 -0.9026 -0.0018
vn 0.2839 -0.9588 -0.0018
vn 0.4305 -0.9026 -0.0018
vn 0.6088 -0.7933 0.0018
vn 0.5664 -0.8241 -0.0018
vn 0.5664 -0.8242 -0.0018
vn 0.7254 -0.6883 0.0018
vn 0.6883 -0.7254 -0.0018
vn 0.5663 -0.8242 -0.0018
vn 0.8242 -0.5663 0.0018
vn 0.7933 -0.6088 -0.0018
vn 0.8241 -0.5664 0.0018
vn 0.9026 -0.4305 0.0018
vn 0.8788 -0.4772 -0.0018
vn 0.8242 -0.5664 0.0018
vn 0.9026 -0.4304 0.0018
vn 0.9588 -0.2839 0.0018
vn 0.9426 -0.3338 -0.0018
vn 0.9588 -0.2840 0.0018
vn 0.9915 -0.1304 0.0018
vn 0.9832 -0.1823 -0.0018
vn 0.9426 -0.3339 -0.0018
vn 0.9914 -0.1305 0.0018
vn 0.9997 0.0262 0.0018
vn 0.9997 -0.0263 -0.0018
vn 0.9915 -0.1305 0.0018
vn 0.9997 0.0263 0.0018
vn 0.9832 0.1823 0.0018
vn 0.9914 0.1305 -0.0018
vn 0.9997 -0.0262 -0.0018
vn 0.9915 0.1305 -0.0018
vn 0.9426 0.3339 0.0018
vn 0.9588 0.2840 -0.0018
vn 0.9426 0.3338 0.0018
vn 0.8788 0.4772 0.0018
vn 0.9026 0.4304 -0.0018
vn 0.9588 0.2839 -0.0018
vn 0.9026 0.4305 -0.0018
vn 0.7933 0.6088 0.0018
vn 0.8241 0.5664 -0.0018
vn 0.8242 0.5664 -0.0018
vn 0.6883 0.7254 0.0018
vn 0.7254 0.6883 -0.0018
vn 0.8242 0.5663 -0.0018
vn 0.5663 0.8242 0.0018
vn 0.6088 0.7933 -0.0018
vn 0.5664 0.8241 0.0018
vn 0.4305 0.9026 0.0018
vn 0.4772 0.8788 -0.0018
vn 0.5664 0.8242 0.0018
vn 0.4304 0.9026 0.0018
vn 0.2839 0.9588 0.0018
vn 0.3338 0.9426 -0.0018
vn 0.2840 0.9588 0.0018
vn 0.1304 0.9915 0.0018
vn 0.1823 0.9832 -0.0018
vn 0.3339 0.9426 -0.0018
vn 0.1305 0.9914 0.0018
vn -0.0262 0.9997 0.0018
vn 0.0263 0.9997 -0.0018
vn 0.1305 0.9915 0.0018
vn -0.0263 0.9997 0.0018
vn -0.1823 0.9832 0.0018
vn -0.1305 0.9914 -0.0018
vn 0.0262 0.9997 -0.0018
vn -0.1305 0.9915 -0.0018
vn -0.3339 0.9426 0.0018
vn -0.2840 0.9588 -0.0018
vn -0.3338 0.9426 0.0018
vn -0.4772 0.8788 0.0018
vn -0.4304 0.9026 -0.0018
vn -0.2839 0.9588 -0.0018
vn -0.4305 0.9026 -0.0018
vn -0.6088 0.7933 0.0018
vn -0.5664 0.8241 -0.0018
vn -0.5664 0.8242 -0.0018
vn -0.7254 0.6883 0.0018
vn -0.6883 0.7254 -0.0018
vn -0.5663 0.8242 -0.0018
vn -0.8242 0.5663 0.0018
vn -0.7933 0.6088 -0.0018
vn -0.8241 0.5664 0.0018
vn -0.9026 0.4305 0.0018
vn -0.8788 0.4772 -0.0018
vn -0.8242 0.5664 0.0018
vn -0.9026 0.4304 0.0018
vn -0.9588 0.2839 0.0018
vn -0.9426 0.3338 -0.0018
vn -0.9588 0.2840 0.0018
vn -0.9914 0.1305 0.0018
vn -0.9832 0.1823 -0.0018
vn -0.9426 0.3339 -0.0018
vn -0.9915 0.1305 0.0018
vn -0.9997 -0.0263 0.0018
vn -0.9997 0.0262 -0.0018
vn -0.9832 -0.1823 0.0018
vn -0.9914 -0.1305 -0.0018
vn -0.9915 -0.1305 -0.0018
vn -0.9426 -0.3339 0.0018
vn -0.9588 -0.2840 -0.0018
vn -0.9426 -0.3338 0.0018
vn -0.8788 -0.4772 0.0018
vn -0.9026 -0.4304 -0.0018
vn -0.9588 -0.2839 -0.0018
vn -0.9026 -0.4305 -0.0018
vn -0.7933 -0.6088 0.0018
vn -0.8241 -0.5664 -0.0018
vn -0.8242 -0.5664 -0.0018
vn -0.6883 -0.7254 0.0018
vn -0.7254 -0.6883 -0.0018
vn -0.8242 -0.5663 -0.0018
vn -0.5663 -0.8242 0.0018
vn -0.6088 -0.7933 -0.0018
vn -0.5664 -0.8241 0.0018
vn -0.4305 -0.9026 0.0018
vn -0.4772 -0.8788 -0.0018
vn -0.5664 -0.8242 0.0018
vn -0.4304 -0.9026 0.0018
vn -0.2839 -0.9588 0.0018
vn -0.3338 -0.9426 -0.0018
vn -0.2840 -0.9588 0.0018
vn -0.1305 -0.9914 0.0018
vn -0.1823 -0.9832 -0.0018
vn -0.3339 -0.9426 -0.0018
vn -0.1305 -0.9915 0.0018
s 0
f 1//1 3//2 5//3
f 2//4 6//5 4//6
f 3//2 4//6 6//7
f 3//2 6//7 5//3
f 1//1 5//3 7//8
f 2//4 8//9 6//10
f 5//3 6//5 8//9
f 5//3 8//9 7//11
f 1//1 7//11 9//12
f 2//4 10//13 8//14
f 7//11 8//9 10//15
f 7//11 10//15 9//12
f 1//1 9//12 11//16
f 2//4 12//17 10//15
f 9//12 10//13 12//18
f 9//12 12//18 11//16
f 1//1 11//16 13//19
f 2//4 14//20 12//21
f 11//16 12//17 14//20
f 11//16 14//20 13//19
f 1//1 13//19 15//22
f 2//4 16//23 14//20
f 13//19 14//20 16//23
f 13//19 16//23 15//24
f 1//1 15//24 17//25
f 2//4 18//26 16//23
f 15//27 16//23 18//26
f 15//27 18//26 17//28
f 1//1 17//28 19//29
f 2//4 20//30 18//26
f 17//25 18//26 20//30
f 17//25 20//30 19//31
f 1//1 19//31 21//32
f 2//4 22//33 20//34
f 19//31 20//30 22//33
f 19//31 22//33 21//35
f 1//1 21//35 23//36
f 2//4 24//37 22//33
f 21//38 22//33 24//37
f 21//38 24//37 23//36
f 1//1 23//39 25//40
f 2//4 26//41 24//42
f 23//39 24//42 26//43
f 23//39 26//43 25//40
f 1//1 25//40 27//44
f 2//4 28//45 26//43
f 25//40 26//41 28//45
f 25//40 28//45 27//46
f 1//1 27//46 29//47
f 2//4 30//48 28//49
f 27//46 28//45 30//50
f 27//46 30//50 29//47
f 1//1 29//47 31//51
f 2//4 32//52 30//50
f 29//47 30//48 32//53
f 29//47 32//53 31//51
f 1//1 31//51 33//54
f 2//4 34//55 32//56
f 31//51 32//52 34//55
f 31//51 34//55 33//54
f 1//1 33//54 35//57
f 2//4 36//58 34//55
f 33//54 34//55 36//58
f 33//54 36//58 35//59
f 1//1 35//59 37//60
f 2//4 38//61 36//58
f 35//62 36//58 38//61
f 35//62 38//61 37//63
f 1//1 37//63 39//64
f 2//4 40//65 38//61
f 37//60 38//61 40//65
f 37//60 40//65 39//66
f 1//1 39//66 41//67
f 2//4 42//68 40//69
f 39//66 40//65 42//68
f 39//66 42//68 41//70
f 1//1 41//70 43//71
f 2//4 44//72 42//68
f 41//73 42//68 44//72
f 41//73 44//72 43//71
f 1//1 43//74 45//75
f 2//4 46//76 44//77
f 43//74 44//77 46//78
f 43//74 46//78 45//75
f 1//1 45//75 47//79
f 2//4 48//80 46//78
f 45//75 46//76 48//80
f 45//75 48//80 47//81
f 1//1 47//81 49//82
f 2//4 50//83 48//84
f 47//81 48//80 50//85
f 47//81 50//85 49//82
f 1//1 49//82 51//86
f 2//4 52//87 50//85
f 49//82 50//83 52//88
f 49//82 52//88 51//86
f 1//1 51//86 53//89
f 2//4 54//90 52//91
f 51//86 52//87 54//90
f 51//86 54//90 53//89
f 1//1 53//89 55//92
f 2//4 56//93 54//90
f 53//89 54//90 56//93
f 53//89 56//93 55//94
f 1//1 55//94 57//95
f 2//4 58//96 56//93
f 55//97 56//93 58//96
f 55//97 58//96 57//98
f 1//1 57//98 59//99
f 2//4 60//100 58//96
f 57//95 58//96 60//100
f 57//95 60//100 59//101
f 1//1 59//101 61//102
f 2//4 62//103 60//104
f 59//101 60//104 62//103
f 59//101 62//103 61//105
f 1//1 61//105 63//106
f 2//4 64//107 62//103
f 61//105 62//103 64//107
f 61//105 64//107 63//106
f 1//1 63//106 65//108
f 2//4 66//109 64//107
f 63//106 64//107 66//110
f 63//106 66//110 65//108
f 1//1 65//108 67//111
f 2//4 68//112 66//110
f 65//108 66//109 68//112
f 65//108 68//112 67//113
f 1//1 67//113 69//114
f 2//4 70//115 68//116
f 67//113 68//112 70//117
f 67//113 70//117 69//114
f 1//1 69//114 71//118
f 2//4 72//119 70//117
f 69//114 70//115 72//120
f 69//114 72//120 71//118
f 1//1 71//118 73//121
f 2//4 74//122 72//123
f 71//118 72//119 74//122
f 71//118 74//122 73//121
f 1//1 73//121 75//124
f 2//4 76//125 74//122
f 73//121 74//122 76//125
f 73//121 76//125 75//126
f 1//1 75//126 77//127
f 2//4 78//128 76//125
f 75//129 76//125 78//128
f 75//129 78//128 77//130
f 1//1 77//130 79//131
f 2//4 80//132 78//128
f 77//127 78//128 80//132
f 77//127 80//132 79//133
f 1//1 79//133 81//134
f 2//4 82//135 80//136
f 79//133 80//136 82//135
f 79//133 82//135 81//137
f 1//1 81//137 3//2
f 2//4 4//6 82//135
f 81//137 82//135 4//6
f 81//137 4//6 3//2
